<?xml version="1.0" encoding="UTF-8" standalone="no"?>
<!-- Created with Inkscape (http://www.inkscape.org/) -->

<svg
   xmlns:dc="http://purl.org/dc/elements/1.1/"
   xmlns:cc="http://creativecommons.org/ns#"
   xmlns:rdf="http://www.w3.org/1999/02/22-rdf-syntax-ns#"
   xmlns:svg="http://www.w3.org/2000/svg"
   xmlns="http://www.w3.org/2000/svg"
   xmlns:sodipodi="http://sodipodi.sourceforge.net/DTD/sodipodi-0.dtd"
   xmlns:inkscape="http://www.inkscape.org/namespaces/inkscape"
   width="744.09448"
   height="1052.3622"
   id="svg2"
   version="1.1"
   inkscape:version="0.48.4 r9939"
   sodipodi:docname="mechanics_v3_thick.svg">
  <defs
     id="defs4" />
  <sodipodi:namedview
     id="base"
     pagecolor="#ffffff"
     bordercolor="#666666"
     borderopacity="1.0"
     inkscape:pageopacity="0.0"
     inkscape:pageshadow="2"
     inkscape:zoom="1.4142136"
     inkscape:cx="295.18687"
     inkscape:cy="155.94694"
     inkscape:document-units="mm"
     inkscape:current-layer="layer1"
     showgrid="true"
     units="mm"
     inkscape:snap-object-midpoints="true"
     inkscape:object-nodes="false"
     inkscape:window-width="1680"
     inkscape:window-height="1003"
     inkscape:window-x="0"
     inkscape:window-y="0"
     inkscape:window-maximized="1">
    <inkscape:grid
       type="xygrid"
       id="grid2985"
       empspacing="10"
       visible="true"
       enabled="true"
       snapvisiblegridlinesonly="true"
       units="mm"
       spacingx="1mm"
       spacingy="1mm" />
    <inkscape:grid
       type="xygrid"
       id="grid3049"
       units="mm"
       empspacing="5"
       visible="false"
       enabled="false"
       snapvisiblegridlinesonly="true"
       color="#ff0000"
       opacity="0.25098039"
       empcolor="#ff0000"
       empopacity="0.25098039"
       spacingx="0.1mm"
       spacingy="0.1mm" />
  </sodipodi:namedview>
  <metadata
     id="metadata7">
    <rdf:RDF>
      <cc:Work
         rdf:about="">
        <dc:format>image/svg+xml</dc:format>
        <dc:type
           rdf:resource="http://purl.org/dc/dcmitype/StillImage" />
        <dc:title></dc:title>
      </cc:Work>
    </rdf:RDF>
  </metadata>
  <g
     inkscape:label="Layer 1"
     inkscape:groupmode="layer"
     id="layer1"
     transform="translate(0,-2.5390623e-6)">
    <g
       id="g4485"
       transform="translate(219.68504,-42.51967)">
      <path
         id="path2987-8"
         d="m 145.27559,910.62988 c 0,1.95692 -1.58639,3.54331 -3.54331,3.54331 -1.95691,0 -3.5433,-1.58639 -3.5433,-3.54331 0,-1.95691 1.58639,-3.5433 3.5433,-3.5433 1.95692,0 3.54331,1.58639 3.54331,3.5433 z"
         style="opacity:0.98999999;fill:none;stroke:#ff0000;stroke-width:0.99921262;stroke-miterlimit:4;stroke-opacity:1"
         transform="translate(-35.43307,-63.779513)"
         inkscape:connector-curvature="0" />
      <path
         transform="translate(35.43307,-173.62204)"
         id="path3045-7"
         d="m 88.582678,1013.3858 c 0,9.7846 -7.931963,17.7165 -17.716536,17.7165 -9.784572,0 -17.716535,-7.9319 -17.716535,-17.7165 0,-9.7846 7.931963,-17.71653 17.716535,-17.71653 9.784573,0 17.716536,7.93193 17.716536,17.71653 z"
         style="opacity:0.98999999;fill:none;stroke:#000000;stroke-width:0.99921262;stroke-miterlimit:4;stroke-opacity:1"
         inkscape:connector-curvature="0" />
    </g>
    <g
       id="g4082"
       transform="translate(-458.85827,-134.64567)">
      <path
         transform="translate(168.30706,-63.779539)"
         style="opacity:0.98999999000000005;fill:none;stroke:#ff0000;stroke-width:0.99921262000000000;stroke-miterlimit:4;stroke-opacity:1"
         d="m 783.07089,946.06299 c 0,1.95691 -1.58639,3.54331 -3.5433,3.54331 -1.95692,0 -3.54331,-1.5864 -3.54331,-3.54331 0,-1.95692 1.58639,-3.54331 3.54331,-3.54331 1.95691,0 3.5433,1.58639 3.5433,3.54331 z"
         id="path3288-6" />
      <path
         sodipodi:nodetypes="cccccccccccc"
         inkscape:connector-curvature="0"
         id="rect3290-1"
         d="m 735.23619,864.5669 3e-5,-60.23621 17.71654,0 -10e-6,60.23622 198.42517,10e-6 c 7.08661,0 14.17323,7.08661 14.17323,14.17323 l 0,7.08661 c 0,7.08661 -7.08662,14.17323 -14.17323,14.17323 l -198.42517,-10e-6 10e-6,56.69292 -17.71654,0 z"
         style="opacity:0.98999999;fill:none;stroke:#000000;stroke-width:0.99921262;stroke-miterlimit:4;stroke-opacity:1" />
    </g>
  </g>
</svg>
