<?xml version="1.0" encoding="UTF-8" standalone="no"?>
<!-- Created with Inkscape (http://www.inkscape.org/) -->

<svg
   xmlns:dc="http://purl.org/dc/elements/1.1/"
   xmlns:cc="http://creativecommons.org/ns#"
   xmlns:rdf="http://www.w3.org/1999/02/22-rdf-syntax-ns#"
   xmlns:svg="http://www.w3.org/2000/svg"
   xmlns="http://www.w3.org/2000/svg"
   xmlns:sodipodi="http://sodipodi.sourceforge.net/DTD/sodipodi-0.dtd"
   xmlns:inkscape="http://www.inkscape.org/namespaces/inkscape"
   width="744.09448"
   height="1052.3622"
   id="svg2"
   version="1.1"
   inkscape:version="0.47 r22583"
   sodipodi:docname="mechanics_v3.1_drawing_board.svg">
  <defs
     id="defs4">
    <inkscape:perspective
       sodipodi:type="inkscape:persp3d"
       inkscape:vp_x="0 : 526.18109 : 1"
       inkscape:vp_y="0 : 1000 : 0"
       inkscape:vp_z="744.09448 : 526.18109 : 1"
       inkscape:persp3d-origin="372.04724 : 350.78739 : 1"
       id="perspective3034" />
  </defs>
  <sodipodi:namedview
     id="base"
     pagecolor="#ffffff"
     bordercolor="#666666"
     borderopacity="1.0"
     inkscape:pageopacity="0.0"
     inkscape:pageshadow="2"
     inkscape:zoom="2.8284271"
     inkscape:cx="431.30679"
     inkscape:cy="-144.2849"
     inkscape:document-units="mm"
     inkscape:current-layer="layer1"
     showgrid="true"
     units="mm"
     inkscape:snap-object-midpoints="true"
     inkscape:object-nodes="false"
     inkscape:window-width="1198"
     inkscape:window-height="1547"
     inkscape:window-x="0"
     inkscape:window-y="0"
     inkscape:window-maximized="1">
    <inkscape:grid
       type="xygrid"
       id="grid2985"
       empspacing="10"
       visible="true"
       enabled="true"
       snapvisiblegridlinesonly="true"
       units="mm"
       spacingx="1mm"
       spacingy="1mm" />
    <inkscape:grid
       type="xygrid"
       id="grid3049"
       units="mm"
       empspacing="5"
       visible="false"
       enabled="true"
       snapvisiblegridlinesonly="true"
       color="#ff0000"
       opacity="0.25098039"
       empcolor="#ff0000"
       empopacity="0.25098039"
       spacingx="0.5mm"
       spacingy="0.5mm" />
  </sodipodi:namedview>
  <metadata
     id="metadata7">
    <rdf:RDF>
      <cc:Work
         rdf:about="">
        <dc:format>image/svg+xml</dc:format>
        <dc:type
           rdf:resource="http://purl.org/dc/dcmitype/StillImage" />
        <dc:title />
      </cc:Work>
    </rdf:RDF>
  </metadata>
  <g
     inkscape:label="Layer 1"
     inkscape:groupmode="layer"
     id="layer1"
     transform="translate(0,-2.5390623e-6)">
    <path
       inkscape:connector-curvature="0"
       id="rect3047"
       d="m 407.48032,1126.7717 7.08661,0 0,7.0866 -7.08661,0 z"
       style="opacity:0.98999999;fill:none;stroke:#ff0000;stroke-width:0.99921262;stroke-miterlimit:4;stroke-opacity:1" />
    <path
       inkscape:connector-curvature="0"
       id="path3051"
       d="m 435.82677,1165.748 c 0,1.9569 -1.58639,3.5433 -3.5433,3.5433 -1.95692,0 -3.54331,-1.5864 -3.54331,-3.5433 0,-1.9569 1.58639,-3.5433 3.54331,-3.5433 1.95691,0 3.5433,1.5864 3.5433,3.5433 z"
       style="opacity:0.98999999;fill:none;stroke:#ff0000;stroke-width:0.99921262;stroke-miterlimit:4;stroke-opacity:1" />
    <path
       inkscape:connector-curvature="0"
       id="path3051-7"
       d="m 425.19685,1137.4016 c 0,1.9569 -1.58639,3.5433 -3.5433,3.5433 -1.95692,0 -3.54331,-1.5864 -3.54331,-3.5433 0,-1.957 1.58639,-3.5433 3.54331,-3.5433 1.95691,0 3.5433,1.5863 3.5433,3.5433 z"
       style="opacity:0.98999999;fill:none;stroke:#ff0000;stroke-width:0.99921262;stroke-miterlimit:4;stroke-opacity:1" />
    <path
       inkscape:connector-curvature="0"
       id="path3051-7-4"
       d="m 434.05512,1144.4882 c 0,1.9569 -1.58639,3.5433 -3.5433,3.5433 -1.95692,0 -3.54331,-1.5864 -3.54331,-3.5433 0,-1.9569 1.58639,-3.5433 3.54331,-3.5433 1.95691,0 3.5433,1.5864 3.5433,3.5433 z"
       style="opacity:0.98999999;fill:none;stroke:#ff0000;stroke-width:0.99921262;stroke-miterlimit:4;stroke-opacity:1" />
    <path
       inkscape:connector-curvature="0"
       id="path3051-8"
       d="m 414.56693,1192.3228 c 0,1.9569 -1.58639,3.5433 -3.5433,3.5433 -1.95692,0 -3.54331,-1.5864 -3.54331,-3.5433 0,-1.9569 1.58639,-3.5433 3.54331,-3.5433 1.95691,0 3.5433,1.5864 3.5433,3.5433 z"
       style="opacity:0.98999999;fill:none;stroke:#ff0000;stroke-width:0.99921262;stroke-miterlimit:4;stroke-opacity:1" />
    <path
       inkscape:connector-curvature="0"
       id="path3107"
       d="m 341.92914,1160.4331 c 0,1.9569 -1.5864,3.5433 -3.54331,3.5433 -1.95692,0 -3.54331,-1.5864 -3.54331,-3.5433 0,-1.957 1.58639,-3.5434 3.54331,-3.5434 1.95691,0 3.54331,1.5864 3.54331,3.5434 z"
       style="opacity:0.98999999;fill:none;stroke:#ff0000;stroke-width:0.99921262;stroke-miterlimit:4;stroke-opacity:1" />
    <path
       inkscape:connector-curvature="0"
       id="path3051-9"
       d="m 329.52756,1183.4646 c 0,1.9569 -1.58639,3.5433 -3.5433,3.5433 -1.95692,0 -3.54331,-1.5864 -3.54331,-3.5433 0,-1.957 1.58639,-3.5434 3.54331,-3.5434 1.95691,0 3.5433,1.5864 3.5433,3.5434 z"
       style="opacity:0.98999999;fill:none;stroke:#ff0000;stroke-width:0.99921262;stroke-miterlimit:4;stroke-opacity:1" />
    <path
       style="opacity:0.98999999;fill:none;stroke:#000000;stroke-width:0.99921262;stroke-miterlimit:4;stroke-opacity:1"
       d="m 272.83465,1020.4724 223.22834,0 0,283.4646 -223.22834,0 0,-283.4646 z"
       id="rect3127"
       inkscape:connector-curvature="0"
       sodipodi:nodetypes="ccccc" />
    <path
       inkscape:connector-curvature="0"
       id="path3107-3"
       d="m 356.10236,1132.0866 c 0,1.9569 -1.5864,3.5433 -3.54331,3.5433 -1.95692,0 -3.54331,-1.5864 -3.54331,-3.5433 0,-1.9569 1.58639,-3.5433 3.54331,-3.5433 1.95691,0 3.54331,1.5864 3.54331,3.5433 z"
       style="opacity:0.98999999;fill:none;stroke:#ff0000;stroke-width:0.99921262;stroke-miterlimit:4;stroke-opacity:1" />
  </g>
</svg>
